<?xml version="1.0" standalone="no"?>
<!DOCTYPE svg PUBLIC "-//W3C//DTD SVG 20010904//EN"
 "http://www.w3.org/TR/2001/REC-SVG-20010904/DTD/svg10.dtd">
<svg version="1.0" xmlns="http://www.w3.org/2000/svg"
 width="1120.000000pt" height="1120.000000pt" viewBox="0 0 1120.000000 1120.000000"
 preserveAspectRatio="xMidYMid meet">
<metadata>
Created by potrace 1.14, written by Peter Selinger 2001-2017
</metadata>
<g transform="translate(0.000000,1120.000000) scale(0.100000,-0.100000)"
fill="#000000" stroke="none">
<path d="M5905 8788 c-3 -13 -30 -142 -60 -288 -31 -146 -64 -296 -75 -335
-11 -38 -78 -351 -149 -695 -117 -562 -417 -1988 -630 -2995 -45 -209 -81
-383 -81 -387 0 -5 280 -8 623 -8 485 0 626 -3 636 -12 11 -10 14 -10 18 0 3
8 27 12 69 12 57 0 64 -2 64 -19 0 -11 -7 -27 -16 -35 -8 -9 -11 -16 -6 -16 5
0 14 -10 21 -22 11 -22 11 -22 7 5 -2 19 0 27 8 24 8 -3 12 10 13 42 0 25 105
532 231 1126 l231 1080 62 58 c143 136 240 187 355 187 79 0 123 -18 160 -68
39 -50 53 -97 54 -174 0 -91 -5 -116 -290 -1466 -82 -392 -150 -715 -150 -717
0 -3 322 -5 715 -5 393 0 715 2 715 4 0 2 61 287 136 632 74 346 150 704 169
795 18 91 49 233 69 315 56 238 97 470 103 584 14 261 -84 462 -296 601 -222
146 -543 187 -871 112 -213 -48 -509 -209 -712 -387 -81 -71 -128 -94 -128
-63 0 11 196 929 288 1347 17 74 33 158 37 185 5 39 99 504 119 588 4 16 -35
17 -715 17 l-719 0 -5 -22z"/>
<path d="M3053 8568 c-6 -15 -7 -32 -1 -47 5 -14 6 -31 4 -38 -6 -13 33 -83
45 -83 6 0 19 75 19 111 0 11 -4 19 -10 19 -5 0 -10 -13 -10 -30 0 -16 -4 -30
-10 -30 -6 0 -10 27 -10 60 0 63 -10 76 -27 38z"/>
<path d="M3391 8507 c-1 -15 5 -57 11 -92 10 -51 16 -65 30 -65 22 0 23 13 4
33 -8 7 -21 45 -29 83 -8 38 -15 57 -16 41z"/>
<path d="M3230 8470 c-8 -5 -22 -7 -31 -5 -25 8 -41 -19 -37 -67 3 -37 6 -43
28 -46 20 -3 23 -1 13 9 -17 17 -16 76 1 82 16 6 36 -11 36 -31 0 -12 3 -12
16 -2 16 14 16 61 -1 67 -5 1 -17 -2 -25 -7z"/>
<path d="M2906 8403 c7 -43 24 -67 25 -37 0 18 1 18 8 -1 5 -11 7 -29 5 -40
-3 -17 10 -34 28 -35 4 0 6 16 5 35 -1 19 -6 35 -12 35 -5 0 -19 18 -29 40
-24 50 -39 52 -30 3z"/>
<path d="M2872 8377 c-9 -11 -10 -17 -2 -22 15 -9 23 -1 18 21 -3 15 -4 16
-16 1z"/>
<path d="M3738 8365 c-19 -26 -24 -60 -9 -69 5 -4 12 7 16 24 4 16 11 32 16
35 11 7 12 35 2 35 -5 0 -16 -11 -25 -25z"/>
<path d="M4428 8335 c4 -22 1 -25 -29 -27 -19 0 -46 0 -62 1 -17 2 -29 -4 -33
-14 -12 -30 10 -37 64 -22 41 13 54 13 67 3 20 -14 13 -51 -11 -60 -8 -3 -13
-2 -10 3 9 14 -52 10 -65 -5 -9 -11 -15 -11 -25 -3 -10 8 -17 7 -29 -5 -15
-15 -13 -16 24 -16 29 0 41 5 44 18 4 16 5 16 6 0 1 -15 10 -18 50 -18 39 0
51 4 54 18 4 16 5 16 6 -1 1 -25 21 -11 21 15 0 13 -5 18 -14 15 -8 -3 -17 1
-20 9 -9 24 -7 32 9 36 12 2 10 10 -11 41 -32 43 -43 47 -36 12z"/>
<path d="M2590 8331 c0 -11 -6 -21 -12 -24 -7 -2 -10 -7 -7 -11 3 -3 14 -4 23
0 17 7 23 54 6 54 -5 0 -10 -9 -10 -19z"/>
<path d="M3331 8336 c-7 -8 -11 -21 -8 -28 3 -7 6 -4 6 7 1 16 3 17 11 5 12
-19 24 -6 13 15 -9 15 -11 15 -22 1z"/>
<path d="M3817 8344 c-7 -7 14 -44 25 -44 5 0 8 11 8 25 0 23 -18 34 -33 19z"/>
<path d="M4530 8321 c0 -11 5 -23 10 -26 6 -3 10 3 10 14 0 11 -4 23 -10 26
-5 3 -10 -3 -10 -14z"/>
<path d="M1146 8315 c-3 -8 -1 -15 4 -15 6 0 10 7 10 15 0 8 -2 15 -4 15 -2 0
-6 -7 -10 -15z"/>
<path d="M1185 8320 c-7 -12 2 -30 16 -30 12 0 12 27 0 35 -5 3 -12 1 -16 -5z"/>
<path d="M2670 8315 c0 -8 7 -15 15 -15 8 0 15 7 15 15 0 8 -7 15 -15 15 -8 0
-15 -7 -15 -15z"/>
<path d="M3910 8310 c0 -5 5 -10 11 -10 5 0 7 5 4 10 -3 6 -8 10 -11 10 -2 0
-4 -4 -4 -10z"/>
<path d="M1245 8288 c-7 -28 -1 -48 16 -48 12 0 12 40 0 59 -8 12 -11 9 -16
-11z"/>
<path d="M3662 8302 c-15 -10 -10 -54 6 -60 8 -2 12 9 12 32 0 40 0 39 -18 28z"/>
<path d="M2840 8285 c0 -8 -5 -15 -11 -15 -8 0 -8 -5 1 -15 7 -8 16 -12 21 -9
12 7 11 54 -1 54 -5 0 -10 -7 -10 -15z"/>
<path d="M4040 8280 c-13 -9 -13 -11 0 -20 23 -15 29 -12 23 10 -3 11 -6 20
-7 20 0 0 -8 -5 -16 -10z"/>
<path d="M4154 8276 c-8 -21 4 -36 27 -36 25 0 24 11 -1 33 -17 15 -21 15 -26
3z"/>
<path d="M4219 8274 c-10 -13 -10 -17 2 -25 23 -14 29 -11 29 16 0 29 -12 32
-31 9z"/>
<path d="M3793 8265 c-3 -9 -3 -18 0 -21 9 -9 27 6 27 22 0 19 -19 18 -27 -1z"/>
<path d="M1110 8255 c0 -8 5 -15 10 -15 6 0 10 7 10 15 0 8 -4 15 -10 15 -5 0
-10 -7 -10 -15z"/>
<path d="M3747 8242 c-6 -29 -35 -40 -49 -18 -5 6 -8 1 -8 -12 0 -20 4 -23 32
-20 25 2 33 9 39 29 3 15 3 32 -1 39 -4 7 -9 1 -13 -18z"/>
<path d="M2600 8235 c0 -8 -4 -15 -10 -15 -5 0 -10 5 -10 11 0 5 -4 7 -10 4
-5 -3 -10 -15 -10 -26 0 -14 7 -19 25 -19 21 0 25 5 25 30 0 17 -2 30 -5 30
-3 0 -5 -7 -5 -15z"/>
<path d="M3471 8223 c-1 -27 3 -33 19 -33 16 0 20 6 19 33 -1 30 -1 30 -9 7
l-7 -25 -11 25 c-11 25 -11 25 -11 -7z"/>
<path d="M3577 8238 c-5 -18 3 -48 14 -48 5 0 9 14 9 30 0 30 -15 41 -23 18z"/>
<path d="M3320 8216 c0 -16 5 -26 15 -26 8 0 15 6 15 14 0 7 -7 19 -15 26 -13
11 -15 8 -15 -14z"/>
<path d="M2208 8216 c-18 -13 -14 -26 8 -26 6 0 14 9 17 20 6 23 -1 25 -25 6z"/>
<path d="M4550 8200 c0 -5 5 -10 10 -10 6 0 10 5 10 10 0 6 -4 10 -10 10 -5 0
-10 -4 -10 -10z"/>
<path d="M4026 8174 c-4 -15 -5 -29 -2 -31 8 -8 36 24 36 41 0 26 -27 18 -34
-10z"/>
<path d="M1072 8169 c-10 -15 -11 -24 -3 -32 13 -13 28 -1 33 27 4 27 -15 30
-30 5z"/>
<path d="M1276 8170 c-4 -8 -4 -31 -2 -50 3 -19 5 -39 5 -43 1 -5 6 -5 11 -2
12 7 12 62 0 90 -6 16 -9 17 -14 5z"/>
<path d="M2023 8174 c-16 -7 -17 -31 -3 -36 6 -2 31 -1 56 0 35 3 44 8 42 21
-2 11 -15 17 -43 18 -22 1 -46 0 -52 -3z"/>
<path d="M5436 8164 c-9 -22 -8 -24 9 -24 8 0 15 6 15 14 0 22 -17 28 -24 10z"/>
<path d="M4740 8150 c0 -5 5 -10 10 -10 6 0 10 5 10 10 0 6 -4 10 -10 10 -5 0
-10 -4 -10 -10z"/>
<path d="M5510 8150 c0 -5 5 -10 10 -10 6 0 10 5 10 10 0 6 -4 10 -10 10 -5 0
-10 -4 -10 -10z"/>
<path d="M7415 8151 c-47 -6 -50 -7 -52 -38 -3 -31 5 -41 21 -26 4 4 26 6 50
4 24 -1 53 4 65 11 24 15 28 48 7 48 -8 0 -20 2 -28 3 -7 2 -35 1 -63 -2z"/>
<path d="M1214 8139 c-8 -14 18 -31 30 -19 9 9 0 30 -14 30 -5 0 -12 -5 -16
-11z"/>
<path d="M5367 8119 c-22 -30 -21 -39 2 -39 22 0 31 18 21 44 -6 18 -7 18 -23
-5z"/>
<path d="M1002 8118 c-7 -7 -12 -17 -12 -22 0 -6 5 -4 10 4 8 13 11 12 25 -5
15 -20 16 -20 13 4 -3 28 -19 36 -36 19z"/>
<path d="M911 8104 c0 -11 3 -14 6 -6 3 7 2 16 -1 19 -3 4 -6 -2 -5 -13z"/>
<path d="M1770 8105 c-10 -12 -9 -16 5 -21 19 -8 40 9 31 25 -10 15 -21 14
-36 -4z"/>
<path d="M4894 8109 c-9 -15 6 -29 32 -29 14 0 24 6 24 14 0 15 -48 28 -56 15z"/>
<path d="M1517 8063 c-4 -3 -7 -13 -7 -20 0 -19 72 -13 78 6 3 9 -1 11 -16 7
-11 -4 -23 -2 -27 4 -7 12 -19 13 -28 3z"/>
<path d="M1275 8011 c-10 -17 4 -31 31 -31 19 0 25 5 22 18 -4 19 -43 29 -53
13z"/>
<path d="M1453 8003 c-18 -7 -16 -23 2 -23 8 0 15 7 15 15 0 8 -1 15 -2 14 -2
0 -9 -3 -15 -6z"/>
<path d="M7400 7994 c0 -8 5 -12 10 -9 6 4 8 11 5 16 -9 14 -15 11 -15 -7z"/>
<path d="M7457 8004 c-13 -13 -7 -24 14 -24 11 0 19 5 17 12 -5 14 -22 21 -31
12z"/>
<path d="M7770 7940 c0 -5 5 -10 10 -10 6 0 10 5 10 10 0 6 -4 10 -10 10 -5 0
-10 -4 -10 -10z"/>
<path d="M8075 7900 c-12 -19 16 -40 51 -40 44 0 43 16 -2 35 -43 18 -41 18
-49 5z"/>
<path d="M8045 7891 c-3 -5 -1 -12 5 -16 5 -3 10 1 10 9 0 18 -6 21 -15 7z"/>
<path d="M7897 7874 c-11 -11 -8 -52 4 -60 6 -3 8 -17 5 -30 -5 -18 -3 -22 9
-18 8 4 15 7 15 8 -1 0 -6 25 -13 54 -7 29 -16 50 -20 46z"/>
<path d="M8202 7861 c2 -7 7 -12 11 -12 12 1 9 15 -3 20 -7 2 -11 -2 -8 -8z"/>
<path d="M680 7773 c0 -12 -7 -29 -16 -37 -14 -15 -14 -17 1 -22 29 -11 46 34
25 66 -8 12 -10 11 -10 -7z"/>
<path d="M565 7701 c-3 -6 4 -15 15 -21 17 -9 20 -8 20 10 0 20 -24 28 -35 11z"/>
<path d="M4240 7685 c0 -17 2 -17 10 -5 9 13 11 13 20 0 8 -12 10 -12 10 5 0
14 -6 21 -20 21 -14 0 -20 -7 -20 -21z"/>
<path d="M8280 7676 c0 -9 7 -16 16 -16 9 0 14 5 12 12 -6 18 -28 21 -28 4z"/>
<path d="M596 7648 c-16 -23 -13 -38 8 -38 20 0 37 25 30 44 -8 22 -20 20 -38
-6z"/>
<path d="M8386 7641 c-8 -12 3 -41 15 -41 12 0 12 37 0 45 -5 3 -12 1 -15 -4z"/>
<path d="M8450 7620 c0 -19 3 -21 12 -12 9 9 9 15 0 24 -9 9 -12 7 -12 -12z"/>
<path d="M8507 7626 c-7 -19 11 -32 24 -19 6 6 5 14 -4 22 -12 9 -16 8 -20 -3z"/>
<path d="M8632 7568 c3 -7 21 -14 41 -16 28 -2 37 1 37 12 0 12 -11 16 -41 16
-28 0 -39 -4 -37 -12z"/>
<path d="M688 7538 c-21 -11 -38 -24 -38 -29 0 -13 18 -11 23 4 4 10 6 10 6 0
1 -7 12 -13 26 -13 21 0 25 5 25 30 0 17 -1 29 -2 29 -2 -1 -20 -10 -40 -21z"/>
<path d="M8788 7500 c-2 -21 -2 -44 0 -49 7 -20 22 -11 22 13 0 16 5 23 16 22
9 0 19 5 21 12 3 6 -2 12 -10 12 -9 0 -22 7 -30 15 -13 13 -15 10 -19 -25z"/>
<path d="M511 7463 c-10 -20 -53 -37 -95 -38 -11 0 -21 -6 -23 -12 -6 -18 58
-17 83 2 10 8 37 15 59 15 46 0 85 9 85 19 0 4 -16 5 -36 3 -26 -3 -39 0 -48
14 -13 17 -14 17 -25 -3z"/>
<path d="M693 7430 c-12 -10 -23 -16 -26 -13 -3 3 -16 -2 -29 -11 -22 -16 -22
-16 19 -16 54 0 73 8 73 30 0 28 -14 32 -37 10z"/>
<path d="M8820 7414 c0 -14 5 -24 11 -22 6 2 10 7 10 11 -1 4 -1 14 -1 22 0 8
-4 15 -10 15 -5 0 -10 -12 -10 -26z"/>
<path d="M512 7368 c-18 -18 -15 -28 8 -28 13 0 20 7 20 20 0 23 -10 26 -28 8z"/>
<path d="M8882 7344 c3 -28 31 -54 44 -41 13 12 -10 62 -29 65 -15 3 -18 -2
-15 -24z"/>
<path d="M422 7286 c-14 -32 -8 -36 53 -36 38 0 56 5 69 19 17 18 16 19 -31
23 -26 3 -55 8 -64 12 -11 5 -19 -1 -27 -18z"/>
<path d="M610 7280 c0 -5 8 -15 19 -22 15 -9 17 -17 11 -40 -8 -27 6 -53 14
-26 9 28 14 72 9 85 -7 18 -21 16 -26 -4 -4 -17 -5 -17 -6 0 -1 18 -21 25 -21
7z"/>
<path d="M8820 7265 c0 -30 11 -32 33 -7 19 21 13 32 -15 32 -13 0 -18 -7 -18
-25z"/>
<path d="M8790 7205 c0 -14 5 -25 10 -25 6 0 10 11 10 25 0 14 -4 25 -10 25
-5 0 -10 -11 -10 -25z"/>
<path d="M8820 7145 c0 -18 9 -23 31 -18 11 3 18 10 16 16 -5 15 -47 16 -47 2z"/>
<path d="M474 7129 c-10 -17 13 -36 27 -22 12 12 4 33 -11 33 -5 0 -12 -5 -16
-11z"/>
<path d="M2021 7063 c-12 -54 -81 -417 -81 -426 0 -4 319 -8 709 -9 l709 -3
-271 -290 c-486 -519 -1470 -1568 -1535 -1637 l-63 -66 -53 -274 -52 -273 874
-3 c869 -2 874 -2 879 -22 l6 -21 14 21 c14 19 24 20 308 20 269 0 295 -1 304
-17 10 -17 10 -17 11 0 0 16 12 18 148 17 81 -1 248 -1 373 0 l225 0 41 233
c23 127 40 233 39 234 -1 2 -350 3 -774 3 -425 0 -772 3 -772 5 0 5 1074 1209
1629 1827 l195 217 51 228 c29 125 55 240 58 256 l7 27 -1484 0 -1484 0 -11
-47z"/>
<path d="M538 7050 c-17 -30 -17 -30 7 -30 21 0 25 5 25 30 0 38 -10 38 -32 0z"/>
<path d="M9005 7040 c-3 -6 1 -13 10 -16 19 -8 30 0 20 15 -8 14 -22 14 -30 1z"/>
<path d="M425 7015 c-22 -8 -52 -15 -67 -15 -16 0 -28 -5 -28 -10 0 -16 30
-24 43 -11 6 6 20 11 32 11 12 0 26 -5 32 -11 18 -18 43 -2 43 26 0 29 -1 29
-55 10z"/>
<path d="M480 6961 c0 -17 12 -41 21 -41 5 0 9 11 9 25 0 16 -6 25 -15 25 -8
0 -15 -4 -15 -9z"/>
<path d="M9070 6930 c0 -19 3 -21 12 -12 9 9 9 15 0 24 -9 9 -12 7 -12 -12z"/>
<path d="M9220 6881 c0 -17 7 -19 38 -12 5 1 -26 31 -32 31 -3 0 -6 -9 -6 -19z"/>
<path d="M9160 6875 c0 -8 7 -15 15 -15 8 0 15 7 15 15 0 8 -7 15 -15 15 -8 0
-15 -7 -15 -15z"/>
<path d="M455 6870 c3 -5 8 -10 11 -10 2 0 4 5 4 10 0 6 -5 10 -11 10 -5 0 -7
-4 -4 -10z"/>
<path d="M278 6834 c-4 -4 -3 -13 3 -21 13 -15 49 -18 49 -4 0 5 -9 7 -19 4
-13 -3 -20 1 -23 12 -1 9 -6 13 -10 9z"/>
<path d="M9380 6820 c0 -5 14 -10 32 -10 35 0 30 12 -7 17 -14 2 -25 -1 -25
-7z"/>
<path d="M428 6779 c3 -20 8 -27 14 -21 11 11 2 52 -11 52 -4 0 -6 -14 -3 -31z"/>
<path d="M9530 6778 c0 -9 -6 -18 -12 -21 -17 -6 20 -36 45 -37 25 0 21 23 -8
50 -20 18 -25 20 -25 8z"/>
<path d="M9280 6749 c0 -5 5 -7 10 -4 6 3 10 8 10 11 0 2 -4 4 -10 4 -5 0 -10
-5 -10 -11z"/>
<path d="M9328 6731 c-3 -21 -1 -28 9 -24 14 6 18 53 4 53 -5 0 -11 -13 -13
-29z"/>
<path d="M367 6727 c-44 -18 -30 -41 26 -45 37 -2 47 0 47 12 0 9 -4 16 -10
16 -5 0 -10 7 -10 15 0 17 -13 18 -53 2z"/>
<path d="M413 6632 c-37 -18 -42 -31 -13 -33 11 -1 26 -2 32 -3 7 -1 14 11 15
27 1 15 1 26 0 26 -1 -1 -17 -9 -34 -17z"/>
<path d="M9483 6623 c-21 -8 -15 -20 12 -25 28 -6 27 -6 19 16 -6 17 -11 18
-31 9z"/>
<path d="M399 6511 c-9 -7 -27 -23 -40 -35 -13 -11 -29 -20 -35 -18 -13 3 -40
-26 -32 -33 3 -3 22 2 44 11 23 10 79 19 137 22 73 3 97 8 97 18 0 14 -37 19
-112 15 -29 -2 -37 1 -40 16 -3 16 -5 17 -19 4z"/>
<path d="M9653 6515 c3 -25 37 -34 37 -10 0 11 -5 15 -14 12 -8 -3 -17 -1 -20
6 -3 7 -5 3 -3 -8z"/>
<path d="M424 6405 c-84 -20 -94 -34 -44 -60 30 -16 30 -16 36 14 4 20 12 30
23 29 47 -4 70 2 65 17 -7 17 -11 17 -80 0z"/>
<path d="M9675 6380 c3 -5 8 -10 11 -10 2 0 4 5 4 10 0 6 -5 10 -11 10 -5 0
-7 -4 -4 -10z"/>
<path d="M9944 6355 c-23 -16 -18 -22 20 -27 34 -4 46 16 18 31 -14 7 -24 6
-38 -4z"/>
<path d="M9824 6323 c3 -8 6 -23 6 -32 0 -10 7 -18 15 -18 8 0 15 9 15 19 0
26 18 22 22 -4 5 -36 23 -27 23 12 0 34 -1 34 -43 36 -34 1 -42 -2 -38 -13z"/>
<path d="M9780 6320 c0 -5 7 -10 15 -10 8 0 15 5 15 10 0 6 -7 10 -15 10 -8 0
-15 -4 -15 -10z"/>
<path d="M10090 6300 c0 -5 5 -10 11 -10 5 0 7 5 4 10 -3 6 -8 10 -11 10 -2 0
-4 -4 -4 -10z"/>
<path d="M510 6280 c19 -13 30 -13 30 0 0 6 -10 10 -22 10 -19 0 -20 -2 -8
-10z"/>
<path d="M10080 6240 c0 -6 -32 -10 -76 -10 -72 0 -75 -1 -72 -22 2 -19 10
-23 38 -24 19 -1 42 -4 51 -8 11 -5 22 -1 30 12 19 27 56 12 65 -25 13 -56 74
-67 74 -14 0 28 -21 53 -72 84 -32 20 -38 21 -38 7z"/>
<path d="M520 6230 c0 -5 5 -10 10 -10 6 0 10 5 10 10 0 6 -4 10 -10 10 -5 0
-10 -4 -10 -10z"/>
<path d="M456 6193 c-11 -11 -6 -23 9 -23 8 0 15 4 15 9 0 13 -16 22 -24 14z"/>
<path d="M9900 6145 c0 -14 5 -25 10 -25 6 0 10 11 10 25 0 14 -4 25 -10 25
-5 0 -10 -11 -10 -25z"/>
<path d="M364 6128 c-8 -25 -2 -30 30 -26 l25 3 -24 21 c-24 21 -24 22 -31 2z"/>
<path d="M440 6108 c0 -5 13 -7 28 -6 15 1 33 -1 40 -6 19 -12 14 -43 -8 -49
-11 -3 -20 -13 -20 -22 0 -12 7 -15 28 -13 25 3 27 6 27 53 l0 50 -47 0 c-27
1 -48 -3 -48 -7z"/>
<path d="M9930 6056 c0 -13 7 -27 16 -30 23 -9 28 -2 20 29 -8 32 -36 33 -36
1z"/>
<path d="M441 6027 c-9 -12 -8 -16 5 -21 22 -8 28 -1 17 19 -8 14 -11 14 -22
2z"/>
<path d="M10030 6026 c0 -9 6 -16 14 -16 11 0 13 -10 11 -37 -5 -44 2 -73 17
-73 6 0 8 13 4 35 -4 21 -2 42 6 54 14 23 6 35 -29 46 -17 5 -23 2 -23 -9z"/>
<path d="M10150 5976 c0 -9 7 -16 16 -16 9 0 14 5 12 12 -6 18 -28 21 -28 4z"/>
<path d="M10240 5930 c0 -5 5 -10 10 -10 6 0 10 5 10 10 0 6 -4 10 -10 10 -5
0 -10 -4 -10 -10z"/>
<path d="M436 5915 c-11 -31 -6 -34 63 -33 38 0 74 -2 80 -6 18 -12 12 -35
-14 -52 -14 -9 -22 -20 -19 -26 3 -5 11 -4 19 2 8 7 19 9 25 5 8 -5 10 10 8
47 l-3 53 -68 0 c-45 0 -71 5 -76 14 -6 10 -10 9 -15 -4z"/>
<path d="M9847 5904 c-4 -4 -7 -18 -7 -32 0 -21 2 -22 15 -12 13 11 15 7 15
-24 0 -25 5 -36 14 -36 21 0 30 19 16 35 -8 10 -9 19 0 35 6 11 8 25 5 30 -10
17 -35 11 -36 -7 0 -17 -1 -17 -8 0 -3 10 -10 15 -14 11z"/>
<path d="M10210 5900 c0 -5 5 -10 10 -10 6 0 10 5 10 10 0 6 -4 10 -10 10 -5
0 -10 -4 -10 -10z"/>
<path d="M10064 5846 c-8 -22 -2 -27 16 -16 12 7 12 12 3 21 -10 10 -14 9 -19
-5z"/>
<path d="M10155 5850 c-4 -7 -3 -16 3 -22 14 -14 45 -2 40 15 -6 16 -34 21
-43 7z"/>
<path d="M10090 5760 c0 -11 7 -20 15 -20 17 0 18 2 9 24 -9 23 -24 20 -24 -4z"/>
<path d="M543 5758 c2 -7 14 -13 27 -13 13 0 25 6 28 13 2 8 -7 12 -28 12 -21
0 -30 -4 -27 -12z"/>
<path d="M9872 5698 l3 -53 45 -3 c42 -2 44 -1 26 13 -11 8 -28 15 -38 15 -14
0 -18 8 -18 40 0 22 -5 40 -11 40 -6 0 -9 -21 -7 -52z"/>
<path d="M9900 5736 c0 -7 9 -16 21 -19 15 -4 19 -2 15 10 -3 8 -6 17 -6 19 0
2 -7 4 -15 4 -8 0 -15 -6 -15 -14z"/>
<path d="M9971 5738 c0 -7 4 -22 9 -33 7 -18 8 -19 15 -2 4 9 5 24 1 32 -7 18
-26 20 -25 3z"/>
<path d="M10045 5690 c3 -5 8 -10 11 -10 2 0 4 5 4 10 0 6 -5 10 -11 10 -5 0
-7 -4 -4 -10z"/>
<path d="M10080 5690 c0 -9 22 -19 68 -30 29 -7 32 -6 32 15 0 22 -4 24 -50
23 -27 0 -50 -4 -50 -8z"/>
<path d="M10303 5657 c-4 -8 -14 -16 -22 -18 -11 -4 -10 -8 3 -22 26 -26 56
-22 56 7 0 31 -25 53 -37 33z"/>
<path d="M10030 5604 c0 -15 6 -24 15 -24 8 0 15 -9 15 -20 0 -13 7 -20 20
-20 14 0 20 7 20 23 0 13 3 17 8 10 9 -14 138 -56 151 -49 5 3 14 -1 21 -9 7
-8 19 -15 27 -15 18 0 13 30 -7 40 -36 18 -68 30 -120 46 -30 8 -64 20 -75 24
-11 5 -32 10 -47 13 -24 4 -28 1 -28 -19z"/>
<path d="M374 5595 c-10 -42 1 -55 50 -55 31 0 46 5 50 16 9 23 -2 34 -35 34
-19 0 -29 5 -29 15 0 25 -29 17 -36 -10z"/>
<path d="M490 5514 c0 -8 5 -12 10 -9 6 3 10 10 10 16 0 5 -4 9 -10 9 -5 0
-10 -7 -10 -16z"/>
<path d="M9902 5518 c5 -15 28 -18 29 -3 0 6 -7 12 -17 13 -10 3 -15 -1 -12
-10z"/>
<path d="M10030 5516 c0 -8 7 -16 15 -20 10 -4 15 1 15 14 0 11 -7 20 -15 20
-8 0 -15 -6 -15 -14z"/>
<path d="M557 5473 c-11 -10 -8 -43 3 -43 6 0 10 11 10 25 0 26 -2 29 -13 18z"/>
<path d="M9997 5466 c-11 -27 -9 -33 13 -39 23 -6 26 11 7 37 -13 18 -14 18
-20 2z"/>
<path d="M10153 5394 c-3 -9 -1 -25 5 -35 10 -15 7 -23 -13 -45 -15 -16 -31
-24 -40 -20 -17 6 -21 -19 -5 -29 20 -12 50 6 50 31 0 15 6 24 15 24 11 0 15
11 15 39 0 43 -16 63 -27 35z"/>
<path d="M490 5393 c-8 -2 -22 -7 -30 -10 -9 -3 3 -11 30 -20 25 -8 47 -19 50
-23 3 -4 17 -10 33 -14 24 -6 27 -4 27 19 0 24 -12 30 -47 26 -7 -1 -13 5 -13
14 0 15 -20 18 -50 8z"/>
<path d="M10305 5349 c-4 -6 -1 -15 6 -20 21 -13 31 -11 27 8 -4 20 -24 28
-33 12z"/>
<path d="M640 5308 c0 -14 18 -17 28 -5 8 10 6 13 -9 13 -10 0 -19 -4 -19 -8z"/>
<path d="M9937 5306 c-10 -25 8 -45 25 -28 8 8 9 12 1 12 -6 0 -13 8 -15 18
-3 15 -4 15 -11 -2z"/>
<path d="M10217 5263 c-4 -3 -7 -28 -7 -54 0 -43 2 -48 29 -57 16 -6 32 -7 36
-4 3 4 9 2 13 -4 11 -18 55 -29 50 -13 -2 7 -11 16 -19 19 -8 4 -24 12 -36 18
-13 7 -30 12 -38 12 -20 0 -20 59 0 66 8 4 15 10 15 15 0 10 -33 12 -43 2z"/>
<path d="M730 5183 c0 -25 1 -26 16 -11 9 9 13 21 10 27 -13 20 -26 11 -26
-16z"/>
<path d="M9760 5170 c-13 -8 -12 -10 3 -10 9 0 17 5 17 10 0 12 -1 12 -20 0z"/>
<path d="M9875 5150 c-3 -5 1 -10 9 -10 9 0 16 5 16 10 0 6 -4 10 -9 10 -6 0
-13 -4 -16 -10z"/>
<path d="M9932 5143 c2 -10 10 -18 18 -18 8 0 16 8 18 18 2 12 -3 17 -18 17
-15 0 -20 -5 -18 -17z"/>
<path d="M10032 5143 c5 -25 28 -28 28 -4 0 12 -6 21 -16 21 -9 0 -14 -7 -12
-17z"/>
<path d="M10150 5140 c0 -13 5 -18 15 -14 8 4 15 12 15 20 0 8 -7 14 -15 14
-8 0 -15 -9 -15 -20z"/>
<path d="M666 5134 c-9 -22 -8 -24 9 -24 8 0 15 9 15 20 0 24 -15 27 -24 4z"/>
<path d="M9947 5093 c-11 -10 -8 -43 3 -43 6 0 10 4 10 9 0 5 3 16 6 25 6 16
-7 22 -19 9z"/>
<path d="M10000 5060 c0 -5 5 -10 11 -10 5 0 7 5 4 10 -3 6 -8 10 -11 10 -2 0
-4 -4 -4 -10z"/>
<path d="M10185 4979 c0 -17 5 -29 13 -29 6 0 12 11 12 24 0 13 -6 26 -12 29
-9 3 -13 -5 -13 -24z"/>
<path d="M566 4985 c25 -19 54 -19 54 0 0 11 -11 15 -37 15 -35 0 -36 -1 -17
-15z"/>
<path d="M10242 4959 c2 -6 7 -10 11 -10 4 1 21 1 38 1 17 0 28 4 24 10 -8 14
-78 13 -73 -1z"/>
<path d="M710 4936 c0 -9 9 -14 20 -13 11 1 20 7 20 14 0 7 -9 13 -20 13 -11
0 -20 -6 -20 -14z"/>
<path d="M10223 4894 c-7 -3 -12 -15 -12 -27 1 -18 2 -19 6 -4 4 15 11 17 36
11 52 -12 72 -10 72 6 0 11 -13 16 -45 17 -25 1 -51 0 -57 -3z"/>
<path d="M10120 4836 c0 -2 7 -6 15 -10 8 -3 15 -1 15 4 0 6 -7 10 -15 10 -8
0 -15 -2 -15 -4z"/>
<path d="M10244 4810 c0 -11 4 -20 9 -20 4 0 19 0 34 0 24 0 25 2 13 14 -8 8
-25 17 -36 20 -17 5 -21 2 -20 -14z"/>
<path d="M10031 4763 c1 -17 3 -21 6 -10 2 9 9 17 14 17 5 0 9 5 9 10 0 6 -7
10 -15 10 -10 0 -15 -9 -14 -27z"/>
<path d="M10370 4760 c0 -5 4 -10 9 -10 6 0 13 5 16 10 3 6 -1 10 -9 10 -9 0
-16 -4 -16 -10z"/>
<path d="M10420 4750 c0 -5 7 -10 15 -10 8 0 15 5 15 10 0 6 -7 10 -15 10 -8
0 -15 -4 -15 -10z"/>
<path d="M10120 4718 c0 -16 5 -28 10 -28 13 0 13 20 0 40 -8 12 -10 9 -10
-12z"/>
<path d="M10317 4727 c4 -6 9 -29 11 -51 3 -35 2 -38 -12 -27 -13 11 -16 11
-16 -2 0 -20 49 -59 69 -55 26 5 24 34 -4 62 -14 14 -24 30 -21 35 7 10 44 3
52 -10 3 -5 14 -9 25 -9 33 0 21 25 -23 45 -51 22 -91 28 -81 12z"/>
<path d="M830 4715 c0 -8 5 -15 10 -15 6 0 10 7 10 15 0 8 -4 15 -10 15 -5 0
-10 -7 -10 -15z"/>
<path d="M10043 4655 c-9 -20 -8 -25 3 -25 8 0 14 10 14 25 0 31 -2 31 -17 0z"/>
<path d="M10150 4665 c0 -8 7 -15 15 -15 8 0 15 7 15 15 0 8 -7 15 -15 15 -8
0 -15 -7 -15 -15z"/>
<path d="M850 4598 c0 -45 10 -79 21 -72 5 3 9 27 9 55 0 37 -4 49 -15 49 -10
0 -15 -10 -15 -32z"/>
<path d="M10090 4615 c0 -9 5 -15 11 -13 6 2 11 8 11 13 0 5 -5 11 -11 13 -6
2 -11 -4 -11 -13z"/>
<path d="M10148 4588 c-2 -6 -24 -12 -48 -12 -86 -2 -44 -36 44 -36 18 0 36
-4 42 -9 5 -5 31 -12 57 -16 46 -6 48 -5 45 16 -2 15 -15 26 -43 36 -78 28
-94 32 -97 21z"/>
<path d="M9600 4443 c0 -22 2 -25 10 -13 13 20 13 40 0 40 -5 0 -10 -12 -10
-27z"/>
<path d="M9844 4459 c-5 -8 1 -10 19 -7 15 3 28 1 29 -3 2 -5 20 -6 40 -3 21
4 35 10 32 15 -8 13 -112 11 -120 -2z"/>
<path d="M10027 4450 c-4 -15 2 -24 23 -35 47 -25 92 -17 69 12 -6 7 -21 13
-32 13 -11 0 -28 7 -37 15 -16 14 -18 14 -23 -5z"/>
<path d="M9764 4406 c20 -11 33 -13 40 -6 7 7 5 10 -4 10 -8 0 -26 3 -40 6
-23 5 -23 5 4 -10z"/>
<path d="M9822 4398 c6 -16 58 -24 58 -8 0 6 -6 10 -12 7 -7 -2 -21 0 -32 5
-14 8 -17 7 -14 -4z"/>
<path d="M9660 4326 c0 -12 10 -16 36 -16 45 0 42 24 -4 28 -24 2 -32 -1 -32
-12z"/>
<path d="M9720 4270 c0 -5 5 -10 10 -10 6 0 10 5 10 10 0 6 -4 10 -10 10 -5 0
-10 -4 -10 -10z"/>
<path d="M807 4263 c-18 -18 6 -93 30 -93 9 0 13 13 12 43 -1 23 -4 32 -6 20
-2 -13 -11 -23 -20 -23 -11 0 -14 8 -11 30 5 32 5 33 -5 23z"/>
<path d="M6547 4243 c-4 -3 -7 -13 -7 -20 0 -12 3 -12 15 1 8 8 15 17 15 20 0
8 -15 7 -23 -1z"/>
<path d="M6802 4230 c0 -14 2 -19 5 -12 2 6 2 18 0 25 -3 6 -5 1 -5 -13z"/>
<path d="M6940 4190 c0 -5 7 -10 15 -10 8 0 15 5 15 10 0 6 -7 10 -15 10 -8 0
-15 -4 -15 -10z"/>
<path d="M9935 4170 c-7 -11 -8 -11 23 -14 25 -3 30 9 6 18 -21 8 -22 8 -29
-4z"/>
<path d="M10003 4146 c2 -6 26 -14 53 -17 27 -4 67 -12 89 -17 45 -12 60 -6
30 11 -41 24 -178 42 -172 23z"/>
<path d="M910 4135 c0 -8 7 -15 15 -15 8 0 15 7 15 15 0 8 -7 15 -15 15 -8 0
-15 -7 -15 -15z"/>
<path d="M9565 4140 c-3 -5 3 -10 14 -10 10 0 27 -3 35 -6 12 -5 15 -2 10 10
-7 18 -49 22 -59 6z"/>
<path d="M6878 4090 c-5 -31 4 -46 20 -36 10 6 3 66 -8 66 -4 0 -10 -14 -12
-30z"/>
<path d="M9900 4107 c0 -11 -10 -15 -32 -13 -28 1 -33 -3 -36 -24 l-3 -25 18
25 18 25 5 -50 c5 -50 5 -50 43 -53 34 -3 37 -1 37 23 0 14 7 28 15 31 13 5
13 9 -1 35 -8 16 -19 29 -23 29 -5 0 -16 3 -25 6 -10 4 -16 1 -16 -9z m34 -33
c23 -9 20 -30 -6 -48 -33 -23 -45 -20 -46 12 0 42 13 51 52 36z"/>
<path d="M877 4082 c-23 -25 -21 -70 3 -109 11 -18 22 -33 24 -33 8 0 36 62
36 79 -1 14 -3 13 -15 -3 -22 -29 -35 -10 -28 39 6 50 4 53 -20 27z"/>
<path d="M9626 4085 c-11 -30 -7 -35 32 -34 31 0 34 2 15 9 -12 5 -26 16 -31
25 -8 16 -9 16 -16 0z"/>
<path d="M9750 4075 c0 -28 3 -30 34 -30 20 0 32 4 28 10 -4 6 -5 18 -4 28 2
9 -2 17 -7 17 -6 0 -11 -10 -11 -22 l0 -23 -20 25 -20 25 0 -30z"/>
<path d="M958 4070 c-7 -24 -3 -38 8 -28 3 4 4 17 2 30 l-3 23 -7 -25z"/>
<path d="M7186 4024 c-9 -22 -8 -24 9 -18 8 4 15 12 15 20 0 19 -16 18 -24 -2z"/>
<path d="M7490 4016 c0 -14 5 -28 12 -32 8 -5 9 -2 5 11 -4 9 -2 24 4 31 9 11
8 14 -5 14 -10 0 -16 -9 -16 -24z"/>
<path d="M3295 4000 c3 -5 10 -10 16 -10 5 0 9 5 9 10 0 6 -7 10 -16 10 -8 0
-12 -4 -9 -10z"/>
<path d="M10060 3970 c0 -30 13 -40 25 -20 8 13 -4 50 -16 50 -5 0 -9 -13 -9
-30z"/>
<path d="M957 3953 c-4 -21 -2 -42 3 -47 7 -7 10 7 10 37 0 57 -5 60 -13 10z"/>
<path d="M5760 3980 c-9 -6 -14 -21 -12 -45 2 -20 -1 -35 -7 -35 -6 0 -11 5
-11 11 0 8 -5 8 -15 -1 -12 -10 -18 -10 -30 0 -12 10 -15 10 -15 -3 0 -8 9
-17 20 -20 11 -3 24 -17 30 -32 14 -36 27 -24 35 34 4 26 13 60 20 75 14 27
10 32 -15 16z"/>
<path d="M5887 3984 c-3 -3 -3 -12 0 -20 4 -11 9 -12 19 -3 8 6 11 15 8 20 -6
10 -18 12 -27 3z"/>
<path d="M7045 3980 c-3 -5 1 -10 9 -10 9 0 16 5 16 10 0 6 -4 10 -9 10 -6 0
-13 -4 -16 -10z"/>
<path d="M7090 3977 c0 -9 -4 -17 -10 -17 -5 0 -10 -4 -10 -10 0 -5 6 -10 14
-10 18 0 30 30 16 44 -7 7 -10 5 -10 -7z"/>
<path d="M7388 3970 c-7 -24 -3 -38 8 -28 3 4 4 17 2 30 l-3 23 -7 -25z"/>
<path d="M7811 3976 c-9 -10 -8 -15 4 -20 10 -4 15 1 15 14 0 24 -4 25 -19 6z"/>
<path d="M8270 3970 c0 -19 3 -21 12 -12 9 9 9 15 0 24 -9 9 -12 7 -12 -12z"/>
<path d="M8360 3982 c0 -5 7 -13 16 -16 10 -4 14 -1 12 6 -5 15 -28 23 -28 10z"/>
<path d="M9038 3983 c7 -3 16 -2 19 1 4 3 -2 6 -13 5 -11 0 -14 -3 -6 -6z"/>
<path d="M9071 3963 c0 -16 3 -21 6 -13 3 8 12 21 21 28 14 10 13 12 -6 12
-18 0 -22 -6 -21 -27z"/>
<path d="M9130 3975 c0 -8 2 -15 4 -15 2 0 6 7 10 15 3 8 1 15 -4 15 -6 0 -10
-7 -10 -15z"/>
<path d="M9198 3982 c-10 -2 -18 -8 -18 -14 0 -6 12 -8 29 -5 24 5 31 2 36
-12 3 -11 5 -23 4 -27 -4 -22 2 -34 16 -34 18 0 20 26 3 33 -10 3 -10 9 0 26
6 11 12 25 12 31 0 10 -41 11 -82 2z"/>
<path d="M5717 3973 c-3 -5 -2 -15 2 -22 5 -7 11 -9 14 -4 3 5 2 15 -2 22 -5
7 -11 9 -14 4z"/>
<path d="M7347 3966 c-4 -10 -5 -21 -2 -24 9 -9 17 6 13 25 -3 17 -4 17 -11
-1z"/>
<path d="M3200 3966 c0 -2 7 -7 16 -10 8 -3 12 -2 9 4 -6 10 -25 14 -25 6z"/>
<path d="M6333 3963 c-17 -6 -17 -23 0 -23 8 0 14 7 14 15 0 8 -1 15 -1 14 -1
0 -7 -3 -13 -6z"/>
<path d="M3600 3950 c0 -6 7 -10 15 -10 8 0 15 2 15 4 0 2 -7 6 -15 10 -8 3
-15 1 -15 -4z"/>
<path d="M7016 3934 c-9 -8 -16 -22 -16 -29 0 -8 -7 -18 -15 -22 -22 -13 -4
-31 35 -34 27 -3 35 0 38 14 2 11 -3 17 -13 17 -14 0 -16 7 -13 35 5 40 5 40
-16 19z"/>
<path d="M6537 3932 c-5 -7 -6 -25 -2 -40 6 -27 9 -28 60 -28 30 1 50 3 45 4
-6 2 -10 17 -10 34 0 26 -2 29 -15 18 -8 -7 -15 -19 -15 -26 0 -34 -44 -8 -52
31 -2 14 -6 16 -11 7z"/>
<path d="M7691 3905 c-11 -32 -10 -38 10 -67 l22 -31 24 29 c20 25 25 27 34
14 8 -12 9 -10 4 7 -4 15 2 28 22 47 25 23 26 26 8 26 -11 0 -26 -9 -33 -20
-7 -11 -20 -20 -30 -20 -10 0 -23 -5 -30 -12 -9 -9 -12 -8 -12 5 0 9 11 19 25
23 31 8 32 20 3 28 -34 9 -33 9 -47 -29z"/>
<path d="M8120 3925 c0 -8 5 -15 10 -15 6 0 10 7 10 15 0 8 -4 15 -10 15 -5 0
-10 -7 -10 -15z"/>
<path d="M8240 3924 c0 -8 5 -12 10 -9 6 3 10 10 10 16 0 5 -4 9 -10 9 -5 0
-10 -7 -10 -16z"/>
<path d="M9130 3916 c0 -16 5 -26 15 -26 8 0 15 6 15 14 0 7 -7 19 -15 26 -13
11 -15 8 -15 -14z"/>
<path d="M9565 3930 c-11 -17 3 -28 30 -22 32 6 33 32 1 32 -14 0 -28 -4 -31
-10z"/>
<path d="M9925 3930 c3 -5 8 -10 11 -10 2 0 4 5 4 10 0 6 -5 10 -11 10 -5 0
-7 -4 -4 -10z"/>
<path d="M5010 3904 c0 -20 -4 -25 -16 -20 -10 4 -14 1 -12 -6 3 -7 12 -14 21
-16 13 -3 17 4 17 32 0 20 -2 36 -5 36 -3 0 -5 -12 -5 -26z"/>
<path d="M5245 3876 c0 -30 3 -52 8 -49 12 7 8 -18 -6 -31 -7 -8 -27 -17 -44
-20 -37 -8 -66 -36 -39 -36 10 0 14 5 11 10 -8 12 15 13 34 1 17 -11 59 5 84
32 17 19 17 20 -2 33 -12 9 -22 31 -26 64 -9 66 -20 64 -20 -4z"/>
<path d="M5313 3922 c-10 -6 -10 -17 -3 -42 6 -19 11 -51 11 -70 l1 -35 7 37
c4 20 13 43 20 51 9 12 8 16 -3 20 -8 3 -16 15 -18 26 -2 13 -7 18 -15 13z"/>
<path d="M5800 3920 c0 -5 5 -10 10 -10 6 0 10 -17 10 -37 0 -30 2 -34 13 -24
6 6 12 28 12 47 0 29 -4 34 -22 34 -13 0 -23 -4 -23 -10z"/>
<path d="M5955 3920 c4 -6 11 -8 16 -5 14 9 11 15 -7 15 -8 0 -12 -5 -9 -10z"/>
<path d="M6675 3903 c4 -16 7 -29 8 -30 8 -6 128 -8 139 -2 8 5 -16 9 -59 9
-71 0 -73 1 -73 25 0 14 -5 25 -11 25 -7 0 -9 -10 -4 -27z"/>
<path d="M7600 3910 c0 -19 3 -21 12 -12 9 9 9 15 0 24 -9 9 -12 7 -12 -12z"/>
<path d="M9192 3903 c2 -10 10 -18 18 -18 8 0 16 8 18 18 2 12 -3 17 -18 17
-15 0 -20 -5 -18 -17z"/>
<path d="M4896 3895 c-3 -10 -19 -15 -46 -15 -49 0 -45 -16 6 -26 28 -5 40 -2
55 13 17 17 18 21 6 32 -12 9 -16 8 -21 -4z"/>
<path d="M9666 3881 c4 -20 3 -31 -5 -31 -6 0 -11 4 -11 9 0 6 -12 9 -27 8
-17 -2 -28 -8 -28 -17 0 -11 14 -16 48 -18 42 -3 47 -5 47 -28 0 -13 3 -24 8
-24 6 0 7 29 3 73 -1 5 -7 5 -13 1 -9 -5 -8 -2 1 9 8 10 12 19 10 20 -2 1 -12
9 -21 16 -16 12 -17 11 -12 -18z"/>
<path d="M8235 3890 c-3 -5 -1 -10 4 -10 6 0 11 5 11 10 0 6 -2 10 -4 10 -3 0
-8 -4 -11 -10z"/>
<path d="M9330 3889 c0 -5 5 -7 10 -4 6 3 10 8 10 11 0 2 -4 4 -10 4 -5 0 -10
-5 -10 -11z"/>
<path d="M7537 3875 c-11 -10 -17 -11 -26 -2 -8 8 -12 3 -17 -20 -4 -21 -11
-30 -19 -26 -10 3 -13 -5 -12 -30 1 -23 6 -33 15 -30 6 3 12 9 12 14 0 5 5 9
10 9 6 0 10 -9 10 -20 0 -22 7 -25 30 -10 12 8 12 10 -3 16 -9 3 -17 12 -17
20 0 27 24 64 42 64 22 0 24 16 3 24 -8 3 -21 -1 -28 -9z"/>
<path d="M980 3856 c0 -14 5 -28 10 -31 6 -4 10 7 10 24 0 17 -4 31 -10 31 -5
0 -10 -11 -10 -24z"/>
<path d="M4346 3865 c-3 -9 0 -15 9 -15 9 0 12 6 9 15 -4 8 -7 15 -9 15 -2 0
-5 -7 -9 -15z"/>
<path d="M4400 3861 c0 -14 6 -18 28 -16 70 7 84 35 17 35 -37 0 -45 -3 -45
-19z"/>
<path d="M4520 3865 c0 -17 27 -20 50 -5 9 5 19 5 27 -2 7 -6 27 -7 45 -4 50
10 61 10 91 3 21 -6 27 -4 27 8 0 13 -19 15 -120 15 -100 0 -120 -2 -120 -15z"/>
<path d="M5450 3861 c0 -12 5 -21 10 -21 6 0 10 6 10 14 0 8 -4 18 -10 21 -5
3 -10 -3 -10 -14z"/>
<path d="M5580 3855 c0 -14 6 -25 14 -25 9 0 12 8 8 25 -2 14 -8 25 -13 25 -5
0 -9 -11 -9 -25z"/>
<path d="M5778 3860 c-7 -24 -3 -38 8 -28 3 4 4 17 2 30 l-3 23 -7 -25z"/>
<path d="M5925 3870 c3 -5 8 -10 11 -10 2 0 4 5 4 10 0 6 -5 10 -11 10 -5 0
-7 -4 -4 -10z"/>
<path d="M6111 3863 c7 -10 15 -20 16 -22 2 -2 3 5 3 17 0 14 -6 22 -16 22
-14 0 -15 -3 -3 -17z"/>
<path d="M6173 3874 c3 -4 2 -15 -4 -25 -7 -15 -6 -19 6 -19 9 0 15 9 15 25 0
14 -5 25 -12 25 -6 0 -8 -3 -5 -6z"/>
<path d="M6450 3870 c0 -5 7 -7 15 -4 11 4 15 -1 16 -17 0 -15 3 -18 6 -9 3 8
12 21 21 28 13 10 10 12 -21 12 -20 0 -37 -4 -37 -10z"/>
<path d="M6845 3870 c-4 -6 10 -9 34 -7 23 1 41 5 41 10 0 11 -68 9 -75 -3z"/>
<path d="M6930 3865 c0 -8 4 -15 9 -15 5 0 11 7 15 15 3 9 0 15 -9 15 -8 0
-15 -7 -15 -15z"/>
<path d="M7103 3866 c9 -7 17 -18 17 -25 0 -6 5 -11 10 -11 14 0 13 23 -2 38
-7 7 -19 12 -27 12 -14 -1 -13 -3 2 -14z"/>
<path d="M7225 3848 c7 -31 20 -47 38 -48 4 0 7 5 7 10 0 6 -6 9 -12 8 -7 -2
-13 4 -13 12 0 8 6 15 13 15 6 0 12 3 12 8 0 4 0 12 0 17 0 6 -12 10 -26 10
-24 0 -25 -2 -19 -32z"/>
<path d="M7871 3863 c-9 -10 -10 -18 -2 -26 7 -7 12 -6 17 6 9 25 1 37 -15 20z"/>
<path d="M8339 3865 c43 -19 61 -19 61 0 0 18 -12 19 -28 3 -9 -9 -12 -9 -12
0 0 7 -12 12 -27 12 -28 -1 -28 -1 6 -15z"/>
<path d="M8432 3860 c14 -22 24 -19 15 5 -4 8 -11 15 -17 15 -6 0 -6 -7 2 -20z"/>
<path d="M4940 3850 c0 -19 3 -21 12 -12 9 9 9 15 0 24 -9 9 -12 7 -12 -12z"/>
<path d="M8110 3834 c0 -19 -4 -25 -15 -20 -10 3 -15 -1 -15 -13 0 -15 10 -18
85 -19 47 0 85 3 85 7 0 7 -55 20 -102 24 -12 1 -18 10 -18 24 0 13 -4 23 -10
23 -5 0 -10 -12 -10 -26z"/>
<path d="M6265 3840 c4 -6 11 -8 16 -5 14 9 11 15 -7 15 -8 0 -12 -5 -9 -10z"/>
<path d="M5914 3832 c-21 -14 -23 -52 -3 -63 11 -5 24 -7 29 -4 13 8 13 35 1
35 -5 0 -11 9 -13 20 -2 11 -7 17 -14 12z"/>
<path d="M6445 3826 c-16 -19 -35 -55 -35 -66 0 -23 68 -37 191 -37 69 0 135
-4 148 -8 12 -3 28 -2 35 4 7 6 32 11 57 10 24 0 71 0 103 0 33 1 65 -4 73
-10 9 -9 17 -8 28 1 13 11 20 9 40 -10 24 -22 48 -20 43 5 -2 8 2 14 7 14 6 0
9 -7 7 -15 -4 -22 19 -17 25 6 7 27 20 25 27 -5 9 -34 50 -53 77 -37 16 10 21
10 25 -3 5 -12 10 -13 20 -4 11 9 15 8 20 -5 3 -9 14 -16 24 -16 11 0 22 -4
25 -10 10 -16 55 -12 55 4 0 8 -5 18 -11 22 -6 3 -9 19 -6 34 6 25 3 28 -31
34 -59 9 -102 7 -102 -6 0 -6 -9 -2 -20 9 -30 33 -130 51 -130 25 0 -12 -3
-13 -12 -4 -9 9 -14 7 -24 -6 -8 -10 -13 -12 -14 -4 0 6 -7 12 -15 12 -8 0
-15 5 -15 10 0 15 -17 12 -35 -7 -12 -12 -19 -13 -24 -4 -4 6 -15 9 -24 5 -9
-3 -17 -1 -17 4 0 7 -14 8 -36 5 -27 -5 -42 -1 -66 17 -17 12 -28 18 -24 11 9
-14 0 -14 -26 0 -13 7 -23 8 -27 1 -11 -18 -51 -24 -56 -9 -3 7 -11 14 -18 15
-7 0 -36 2 -65 4 -39 3 -55 1 -59 -9 -8 -20 -20 -16 -27 10 -6 20 -7 20 -17 5
-5 -10 -17 -18 -24 -18 -8 0 -15 -7 -15 -15 0 -33 -37 -10 -42 27 -2 19 -6 23
-13 14z m195 -36 c0 -5 -4 -10 -10 -10 -5 0 -10 5 -10 10 0 6 5 10 10 10 6 0
10 -4 10 -10z m230 -35 c0 -8 -4 -15 -10 -15 -5 0 -10 7 -10 15 0 8 5 15 10
15 6 0 10 -7 10 -15z m490 -55 c0 -5 -4 -10 -10 -10 -5 0 -10 5 -10 10 0 6 5
10 10 10 6 0 10 -4 10 -10z m44 -32 c-3 -5 -12 -1 -19 9 -7 10 -11 22 -8 27 4
5 12 1 19 -9 7 -10 11 -22 8 -27z"/>
<path d="M3028 3805 c-3 -14 -1 -25 3 -25 5 0 9 11 9 25 0 14 -2 25 -4 25 -2
0 -6 -11 -8 -25z"/>
<path d="M4008 3805 c2 -14 8 -25 13 -25 5 0 9 11 9 25 0 14 -6 25 -14 25 -9
0 -12 -8 -8 -25z"/>
<path d="M4090 3820 c0 -5 5 -10 10 -10 6 0 10 5 10 10 0 6 -4 10 -10 10 -5 0
-10 -4 -10 -10z"/>
<path d="M5497 3824 c-8 -8 1 -24 14 -24 5 0 9 7 9 15 0 15 -12 20 -23 9z"/>
<path d="M5539 3808 c8 -23 31 -37 31 -19 0 6 -4 11 -10 11 -5 0 -10 7 -10 15
0 8 -4 15 -10 15 -5 0 -6 -9 -1 -22z"/>
<path d="M5858 3818 c-4 -10 -14 -18 -23 -18 -21 0 -19 -13 6 -28 27 -17 31
-12 27 30 -2 24 -5 28 -10 16z"/>
<path d="M7161 3826 c12 -10 60 -16 54 -6 -3 5 -18 10 -32 10 -15 0 -24 -2
-22 -4z"/>
<path d="M7316 3816 c3 -9 11 -16 16 -16 13 0 5 23 -10 28 -7 2 -10 -2 -6 -12z"/>
<path d="M8550 3822 c0 -4 15 -8 33 -8 17 0 42 -4 55 -8 12 -4 22 -3 22 2 0 5
-10 12 -22 16 -32 8 -88 7 -88 -2z"/>
<path d="M8670 3813 c0 -7 6 -13 14 -13 8 0 21 -3 30 -6 11 -4 16 0 16 15 0
16 -6 20 -30 18 -16 -1 -30 -8 -30 -14z"/>
<path d="M9245 3782 c3 -52 12 -63 30 -38 8 10 19 15 26 11 7 -5 10 -3 7 6 -2
8 -16 15 -31 17 -17 2 -27 10 -30 25 -3 12 -3 3 -2 -21z"/>
<path d="M1976 3780 c2 -48 7 -55 31 -46 17 7 17 8 1 17 -11 6 -18 22 -18 39
0 17 -4 30 -8 30 -5 0 -7 -18 -6 -40z"/>
<path d="M7370 3804 c0 -8 5 -12 10 -9 6 4 8 11 5 16 -9 14 -15 11 -15 -7z"/>
<path d="M1876 3787 c8 -36 -7 -58 -19 -26 -9 23 -9 23 -17 4 -4 -11 -5 -23
-1 -27 6 -6 51 -11 79 -9 13 1 17 31 4 31 -4 0 -12 10 -17 22 -15 33 -37 36
-29 5z"/>
<path d="M4736 3801 c-3 -5 -15 -7 -26 -4 -11 3 -20 0 -20 -6 0 -7 -13 -9 -37
-5 -35 5 -39 4 -49 -24 -10 -25 -16 -30 -34 -25 -17 4 -20 11 -16 29 8 29 -3
30 -38 3 l-26 -20 -10 23 c-9 20 -18 23 -58 22 -68 -3 -99 -13 -105 -35 -7
-26 -27 -24 -27 3 l0 22 -20 -22 c-26 -27 -25 -32 4 -32 13 0 30 -10 38 -21 9
-15 23 -21 43 -20 17 0 104 3 195 6 91 3 181 8 200 12 19 3 40 7 45 8 45 8 78
20 82 31 3 9 10 7 24 -7 15 -15 24 -17 38 -10 9 6 59 11 109 12 51 2 92 6 92
10 0 14 -23 22 -69 24 -25 2 -47 8 -49 14 -2 6 -8 9 -13 5 -5 -3 -15 -2 -21 3
-25 15 -108 14 -114 -2 -6 -15 -60 -11 -78 6 -13 12 -53 11 -60 0z m-26 -61
c0 -5 -9 -10 -20 -10 -11 0 -20 5 -20 10 0 6 9 10 20 10 11 0 20 -4 20 -10z"/>
<path d="M6100 3800 c0 -6 7 -10 15 -10 8 0 15 2 15 4 0 2 -7 6 -15 10 -8 3
-15 1 -15 -4z"/>
<path d="M7904 3795 c6 -17 -13 -65 -26 -65 -4 0 -8 -4 -8 -10 0 -5 9 -10 20
-10 11 0 20 5 20 10 0 6 5 10 11 10 6 0 9 -9 6 -20 -7 -25 7 -34 23 -15 9 10
9 15 1 15 -6 0 -11 7 -11 15 0 8 9 15 20 15 19 0 19 1 3 20 -10 11 -23 20 -30
20 -7 0 -13 7 -13 15 0 8 -5 15 -11 15 -6 0 -9 -7 -5 -15z"/>
<path d="M2240 3790 c0 -6 7 -10 15 -10 8 0 15 2 15 4 0 2 -7 6 -15 10 -8 3
-15 1 -15 -4z"/>
<path d="M5980 3782 c0 -18 6 -22 31 -22 19 0 28 4 24 11 -4 6 -10 8 -13 5 -3
-3 -14 1 -24 11 -17 15 -18 15 -18 -5z"/>
<path d="M1758 3755 c-3 -14 -1 -25 3 -25 5 0 9 11 9 25 0 14 -2 25 -4 25 -2
0 -6 -11 -8 -25z"/>
<path d="M2210 3770 c0 -5 5 -10 10 -10 6 0 10 5 10 10 0 6 -4 10 -10 10 -5 0
-10 -4 -10 -10z"/>
<path d="M6054 3769 c-9 -16 10 -31 30 -23 13 5 14 9 5 20 -14 17 -25 18 -35
3z"/>
<path d="M6140 3771 c0 -12 23 -31 38 -31 23 0 8 35 -16 36 -12 1 -22 -2 -22
-5z"/>
<path d="M7650 3755 c0 -14 2 -25 4 -25 2 0 6 11 8 25 3 14 1 25 -3 25 -5 0
-9 -11 -9 -25z"/>
<path d="M7865 3770 c-8 -13 -1 -24 14 -19 6 3 7 10 2 18 -6 10 -10 10 -16 1z"/>
<path d="M9010 3764 c0 -20 13 -24 33 -9 16 12 16 13 -8 17 -16 4 -25 1 -25
-8z"/>
<path d="M9085 3770 c-10 -17 2 -26 40 -28 30 -2 36 0 33 14 -3 20 -62 31 -73
14z"/>
<path d="M9380 3758 c0 -9 9 -22 19 -27 16 -9 18 -8 13 11 -4 17 -2 20 12 15
12 -5 16 -3 14 5 -7 21 -58 17 -58 -4z"/>
<path d="M1710 3756 c0 -8 5 -18 10 -21 6 -3 10 1 10 9 0 8 -4 18 -10 21 -5 3
-10 -1 -10 -9z"/>
<path d="M4191 3753 c-9 -14 -12 -15 -19 -5 -8 11 -10 11 -15 -1 -4 -10 2 -17
19 -21 29 -8 44 -1 44 19 0 22 -18 27 -29 8z"/>
<path d="M6200 3756 c0 -15 48 -28 56 -15 9 15 -6 29 -32 29 -14 0 -24 -6 -24
-14z"/>
<path d="M6320 3748 c0 -21 0 -21 14 -3 12 16 16 17 30 6 14 -11 16 -11 16 3
0 11 -9 16 -30 16 -24 0 -30 -4 -30 -22z"/>
<path d="M7740 3760 c0 -5 7 -7 15 -4 8 4 15 8 15 10 0 2 -7 4 -15 4 -8 0 -15
-4 -15 -10z"/>
<path d="M8123 3763 c-7 -3 -13 -13 -13 -24 0 -10 -7 -19 -15 -19 -8 0 -15 -4
-15 -10 0 -5 6 -7 13 -5 19 7 34 -7 42 -42 5 -26 3 -33 -9 -33 -9 0 -16 -8
-16 -20 0 -11 -5 -20 -11 -20 -6 0 -9 7 -5 15 3 9 0 15 -9 15 -8 0 -15 -7 -15
-15 0 -8 -5 -15 -11 -15 -6 0 -8 8 -5 18 4 12 -3 21 -24 30 -17 8 -30 21 -30
30 -1 16 -2 16 -13 0 -7 -9 -25 -20 -40 -23 -15 -4 -27 -12 -27 -17 0 -5 -8
-8 -17 -6 -12 2 -20 16 -24 43 l-6 40 -2 -37 c0 -23 -9 -46 -21 -58 -27 -27
-29 -26 -23 20 5 33 3 40 -11 40 -14 0 -16 -6 -11 -30 4 -20 3 -30 -5 -30 -7
0 -10 7 -6 15 7 20 -8 19 -25 -1 -10 -12 -25 -14 -68 -10 -63 6 -103 -7 -52
-18 17 -3 45 -9 62 -12 21 -5 34 -2 40 7 7 11 11 11 17 2 5 -8 30 -12 68 -11
33 1 70 -4 84 -12 14 -7 60 -14 102 -15 42 -1 91 -8 107 -15 17 -7 38 -9 48
-5 10 5 24 7 31 6 6 -1 12 3 12 9 0 5 5 10 10 10 6 0 10 -6 10 -14 0 -10 9
-14 27 -13 22 2 26 7 27 35 1 33 -10 43 -20 17 -9 -21 -21 -19 -27 6 -4 14
-11 20 -21 16 -35 -14 -95 85 -64 104 10 7 9 9 -4 9 -10 0 -18 9 -20 23 -2 14
-8 22 -15 20z m-113 -137 c0 -16 -37 -29 -45 -16 -3 5 3 13 12 19 25 14 33 13
33 -3z"/>
<path d="M8940 3755 c7 -8 16 -12 21 -9 13 8 1 24 -18 24 -13 0 -13 -3 -3 -15z"/>
<path d="M9778 3762 c-29 -6 -20 -22 12 -22 17 0 30 4 30 9 0 12 -21 18 -42
13z"/>
<path d="M8462 3752 c-10 -7 -10 -11 2 -21 8 -7 18 -26 21 -42 7 -33 12 -35
40 -13 14 11 16 18 8 21 -7 3 -13 14 -13 24 0 11 5 17 10 14 6 -3 10 -2 10 4
0 5 -8 9 -17 9 -10 0 -25 2 -33 6 -8 3 -21 2 -28 -2z"/>
<path d="M9590 3750 c0 -6 7 -10 15 -10 8 0 15 2 15 4 0 2 -7 6 -15 10 -8 3
-15 1 -15 -4z"/>
<path d="M8576 3718 c5 -7 7 -21 6 -30 -2 -10 2 -18 7 -18 6 0 11 9 11 20 0
11 0 23 1 28 0 4 -7 9 -17 10 -12 3 -14 0 -8 -10z"/>
<path d="M2461 3699 c9 -17 13 -19 19 -8 11 16 4 29 -16 29 -12 0 -13 -4 -3
-21z"/>
<path d="M2770 3710 c0 -5 5 -10 10 -10 6 0 10 5 10 10 0 6 -4 10 -10 10 -5 0
-10 -4 -10 -10z"/>
<path d="M2920 3710 c0 -5 5 -10 10 -10 6 0 10 -7 10 -17 0 -9 3 -14 6 -10 8
8 -5 47 -17 47 -5 0 -9 -4 -9 -10z"/>
<path d="M3010 3670 c0 -49 1 -50 30 -50 20 0 30 5 30 15 0 8 -9 15 -20 15
-15 0 -20 7 -20 26 0 21 4 24 20 19 14 -5 20 -2 20 9 0 11 -9 16 -30 16 -29 0
-30 -1 -30 -50z"/>
<path d="M3201 3704 c0 -11 3 -14 6 -6 3 7 2 16 -1 19 -3 4 -6 -2 -5 -13z"/>
<path d="M3236 3706 c21 -15 30 -14 19 3 -3 6 -14 11 -23 11 -13 0 -13 -2 4
-14z"/>
<path d="M3660 3701 c0 -11 5 -23 10 -26 6 -3 10 4 10 17 1 21 2 22 14 6 17
-23 26 -23 26 2 0 16 -7 20 -30 20 -23 0 -30 -5 -30 -19z"/>
<path d="M7777 3714 c-8 -8 1 -24 14 -24 5 0 9 7 9 15 0 15 -12 20 -23 9z"/>
<path d="M8245 3710 c3 -5 8 -10 11 -10 2 0 4 5 4 10 0 6 -5 10 -11 10 -5 0
-7 -4 -4 -10z"/>
<path d="M9453 3713 c9 -2 25 -2 35 0 9 3 1 5 -18 5 -19 0 -27 -2 -17 -5z"/>
<path d="M9575 3710 c4 -6 11 -8 16 -5 14 9 11 15 -7 15 -8 0 -12 -5 -9 -10z"/>
<path d="M9620 3711 c0 -6 5 -13 10 -16 6 -3 10 1 10 9 0 9 -4 16 -10 16 -5 0
-10 -4 -10 -9z"/>
<path d="M9670 3711 c8 -5 27 -11 43 -15 20 -5 27 -3 27 9 0 11 -11 15 -42 15
-29 -1 -38 -3 -28 -9z"/>
<path d="M1595 3700 c-7 -12 2 -30 16 -30 5 0 9 9 9 20 0 21 -15 27 -25 10z"/>
<path d="M2003 3703 c-18 -7 -16 -21 6 -32 16 -9 17 -7 13 14 -2 14 -5 25 -6
24 0 0 -7 -3 -13 -6z"/>
<path d="M8700 3690 c0 -15 9 -17 55 -16 30 0 55 4 55 8 0 9 -34 19 -76 22
-27 3 -34 0 -34 -14z"/>
<path d="M3113 3693 c-18 -7 -16 -38 2 -53 13 -11 15 -7 15 24 0 20 -1 36 -2
35 -2 0 -9 -3 -15 -6z"/>
<path d="M7535 3690 c3 -5 8 -10 11 -10 2 0 4 5 4 10 0 6 -5 10 -11 10 -5 0
-7 -4 -4 -10z"/>
<path d="M8255 3670 c-3 -5 -2 -10 4 -10 5 0 16 -3 25 -6 10 -4 16 -1 16 7 0
7 -3 9 -7 6 -3 -4 -12 -2 -19 4 -8 7 -14 7 -19 -1z"/>
<path d="M1096 3663 c5 -5 12 -12 16 -18 4 -6 8 -2 8 8 0 9 -7 17 -17 17 -9 0
-12 -3 -7 -7z"/>
<path d="M1818 3663 c7 -3 16 -2 19 1 4 3 -2 6 -13 5 -11 0 -14 -3 -6 -6z"/>
<path d="M2150 3646 c0 -13 -7 -26 -15 -30 -8 -3 -15 -12 -15 -21 0 -15 29
-22 31 -7 1 15 7 40 14 61 4 12 2 21 -4 21 -6 0 -11 -11 -11 -24z"/>
<path d="M2336 3654 c-10 -25 -7 -34 9 -34 9 0 15 9 15 25 0 28 -15 34 -24 9z"/>
<path d="M2777 3645 l-18 -25 29 0 c37 0 44 8 29 31 -15 24 -18 24 -40 -6z"/>
<path d="M2890 3645 c0 -14 5 -25 10 -25 6 0 10 11 10 25 0 14 -4 25 -10 25
-5 0 -10 -11 -10 -25z"/>
<path d="M3262 3654 c-7 -8 -24 -14 -37 -14 -14 0 -25 -4 -25 -10 0 -5 14 -10
30 -10 25 0 30 -4 30 -25 0 -14 5 -25 10 -25 6 0 10 4 10 9 0 6 16 7 36 4 25
-4 39 -2 44 8 11 17 -6 29 -42 29 -21 0 -28 5 -28 19 0 26 -12 32 -28 15z"/>
<path d="M3810 3656 c0 -18 33 -30 60 -21 37 12 23 35 -20 35 -28 0 -40 -4
-40 -14z"/>
<path d="M3900 3650 c0 -22 20 -26 51 -9 26 14 15 29 -22 29 -22 0 -29 -5 -29
-20z"/>
<path d="M7483 3663 c-7 -3 -13 -9 -13 -14 0 -12 37 -12 44 0 7 11 -14 20 -31
14z"/>
<path d="M1930 3640 c0 -11 -7 -20 -15 -20 -9 0 -15 -9 -15 -21 0 -17 4 -20
23 -15 19 4 26 0 36 -20 6 -14 16 -22 22 -19 6 4 9 0 7 -11 -2 -11 4 -20 16
-22 15 -3 18 0 13 19 -4 13 -7 36 -7 52 0 15 -4 27 -10 27 -5 0 -10 -12 -10
-26 0 -42 -25 -22 -28 23 -3 42 -32 72 -32 33z"/>
<path d="M2942 3644 c-16 -11 -22 -25 -21 -52 0 -35 1 -35 12 -14 7 15 17 22
28 19 14 -4 17 2 16 29 -1 39 -4 40 -35 18z"/>
<path d="M8481 3623 c0 -16 3 -22 6 -13 3 8 10 21 16 28 7 8 5 12 -7 12 -11 0
-16 -8 -15 -27z"/>
<path d="M1020 3604 c0 -27 20 -54 40 -54 10 0 21 -6 23 -12 3 -8 6 -6 6 5 1
9 -6 17 -14 17 -8 0 -15 7 -15 16 0 15 -23 44 -34 44 -3 0 -6 -7 -6 -16z"/>
<path d="M1465 3610 c-3 -6 -3 -19 0 -30 5 -15 2 -20 -13 -20 -19 0 -20 -7
-18 -105 1 -82 4 -102 13 -90 7 10 9 38 6 76 -5 52 -2 66 21 108 14 27 26 54
26 60 0 14 -27 15 -35 1z"/>
<path d="M1645 3611 c-3 -6 4 -15 15 -21 17 -9 20 -8 20 10 0 20 -24 28 -35
11z"/>
<path d="M2520 3595 c0 -14 4 -25 9 -25 4 0 6 11 3 25 -2 14 -6 25 -8 25 -2 0
-4 -11 -4 -25z"/>
<path d="M2830 3610 c0 -5 5 -10 11 -10 5 0 7 5 4 10 -3 6 -8 10 -11 10 -2 0
-4 -4 -4 -10z"/>
<path d="M3454 3611 c-2 -2 -4 -10 -4 -18 0 -16 46 -18 56 -2 4 8 9 7 15 -2 8
-11 11 -11 20 4 6 9 14 15 20 12 5 -4 9 -3 9 2 0 8 -108 12 -116 4z"/>
<path d="M3580 3608 c0 -5 11 -8 25 -8 14 0 25 4 25 9 0 5 -11 8 -25 7 -14 0
-25 -4 -25 -8z"/>
<path d="M7530 3604 c0 -17 22 -14 28 4 2 7 -3 12 -12 12 -9 0 -16 -7 -16 -16z"/>
<path d="M9500 3597 c0 -14 5 -29 10 -32 7 -4 10 3 8 19 -5 35 -18 45 -18 13z"/>
<path d="M2287 3590 c-3 -11 -1 -20 4 -20 5 0 9 9 9 20 0 11 -2 20 -4 20 -2 0
-6 -9 -9 -20z"/>
<path d="M9407 3586 c-7 -17 8 -24 40 -18 13 2 23 11 22 21 0 10 -2 11 -6 4
-6 -15 -33 -17 -33 -3 0 15 -17 12 -23 -4z"/>
<path d="M8490 3579 c0 -6 8 -18 17 -27 16 -16 16 -16 10 1 -4 10 -7 23 -7 28
0 5 -4 9 -10 9 -5 0 -10 -5 -10 -11z"/>
<path d="M9320 3582 c0 -13 49 -22 56 -11 3 5 -1 9 -10 9 -8 0 -21 3 -30 6 -9
3 -16 2 -16 -4z"/>
<path d="M9611 3571 c-15 -12 -22 -24 -18 -34 3 -9 2 -19 -3 -22 -5 -3 -67 -5
-139 -6 -102 0 -131 -3 -131 -13 0 -20 46 -25 70 -9 18 13 25 12 64 -7 35 -18
47 -20 65 -11 12 7 26 9 33 5 6 -4 39 -7 74 -8 57 -1 64 1 64 18 0 11 10 30
22 43 27 29 13 52 -20 34 -27 -15 -29 -14 -35 9 -6 25 -15 25 -46 1z"/>
<path d="M2806 3562 c-16 -4 -31 -12 -33 -19 -5 -15 64 -26 101 -15 34 9 47
32 19 32 -10 0 -27 2 -38 4 -11 2 -33 1 -49 -2z"/>
<path d="M1756 3529 c-4 -22 -10 -30 -21 -25 -9 3 -15 0 -15 -9 0 -8 -4 -15
-10 -15 -5 0 -10 8 -10 17 0 9 -3 14 -6 10 -4 -3 -3 -22 0 -42 7 -35 7 -35 30
-18 13 10 21 24 19 30 -3 7 2 13 11 13 9 0 16 8 16 19 0 11 3 26 6 35 3 9 2
16 -4 16 -5 0 -12 -14 -16 -31z"/>
<path d="M1810 3551 c0 -25 94 -34 125 -13 18 13 17 13 -17 10 -21 -2 -38 0
-38 4 0 4 -16 8 -35 8 -19 0 -35 -4 -35 -9z"/>
<path d="M3010 3550 c0 -5 5 -10 11 -10 5 0 7 5 4 10 -3 6 -8 10 -11 10 -2 0
-4 -4 -4 -10z"/>
<path d="M8850 3525 c0 -19 5 -35 10 -35 6 0 10 9 10 20 0 25 29 38 41 19 5
-9 9 -10 9 -2 0 8 18 10 60 6 50 -4 60 -2 60 11 0 13 -15 16 -95 16 l-95 0 0
-35z"/>
<path d="M8510 3515 c-7 -9 -10 -18 -7 -21 10 -11 37 5 37 21 0 19 -14 19 -30
0z"/>
<path d="M8636 3514 c-7 -18 11 -47 25 -38 11 7 5 47 -8 51 -6 2 -13 -4 -17
-13z"/>
<path d="M2265 3500 c-3 -5 -1 -10 4 -10 6 0 11 5 11 10 0 6 -2 10 -4 10 -3 0
-8 -4 -11 -10z"/>
<path d="M2350 3501 c0 -16 28 -20 47 -6 17 13 16 14 -14 15 -18 0 -33 -4 -33
-9z"/>
<path d="M2635 3500 c3 -5 8 -10 11 -10 2 0 4 5 4 10 0 6 -5 10 -11 10 -5 0
-7 -4 -4 -10z"/>
<path d="M2690 3500 c0 -5 9 -10 19 -10 11 0 23 5 26 10 4 6 -5 10 -19 10 -14
0 -26 -4 -26 -10z"/>
<path d="M8570 3501 c0 -14 28 -33 40 -26 19 12 10 31 -15 33 -14 1 -25 -2
-25 -7z"/>
<path d="M8700 3502 c0 -5 7 -13 16 -16 10 -4 14 -1 12 6 -5 15 -28 23 -28 10z"/>
<path d="M9260 3500 c0 -5 5 -10 10 -10 6 0 10 5 10 10 0 6 -4 10 -10 10 -5 0
-10 -4 -10 -10z"/>
<path d="M8897 3473 c-13 -13 -7 -32 14 -43 16 -9 30 -8 62 5 28 11 43 13 45
6 5 -16 22 -13 22 3 0 19 -51 31 -61 14 -7 -10 -14 -9 -38 5 -33 19 -35 20
-44 10z"/>
<path d="M1080 3440 c0 -5 7 -10 15 -10 8 0 15 -5 15 -12 0 -9 3 -9 11 -1 6 6
8 16 5 22 -9 14 -46 14 -46 1z"/>
<path d="M1591 3399 c-1 -19 5 -28 20 -32 20 -5 21 -10 15 -60 -4 -42 -3 -56
8 -60 22 -9 30 82 10 122 -10 19 -21 30 -29 27 -8 -3 -16 3 -18 12 -3 10 -5 7
-6 -9z"/>
<path d="M1072 3383 c-18 -33 -15 -47 15 -60 36 -17 43 -16 43 6 0 10 -9 21
-19 24 -11 2 -21 15 -23 28 l-3 24 -13 -22z"/>
<path d="M1550 3339 c0 -6 9 -22 20 -36 l20 -26 0 37 c0 29 -4 36 -20 36 -11
0 -20 -5 -20 -11z"/>
<path d="M1405 3290 c3 -5 10 -10 16 -10 5 0 9 5 9 10 0 6 -7 10 -16 10 -8 0
-12 -4 -9 -10z"/>
<path d="M1182 3060 c2 -17 10 -26 26 -28 18 -3 22 -10 22 -42 0 -29 5 -42 19
-50 28 -14 31 -13 31 15 0 16 -6 25 -15 25 -9 0 -15 9 -15 24 0 13 -7 26 -15
30 -8 3 -15 16 -15 28 0 19 -2 20 -10 8 -9 -13 -11 -13 -20 0 -9 12 -10 10 -8
-10z"/>
<path d="M1430 3055 c0 -15 4 -24 10 -20 6 3 10 12 10 20 0 8 -4 17 -10 20 -6
4 -10 -5 -10 -20z"/>
<path d="M1290 2901 c0 -11 5 -23 10 -26 6 -4 10 5 10 19 0 14 -4 26 -10 26
-5 0 -10 -9 -10 -19z"/>
<path d="M1436 2851 c-4 -7 -5 -15 -2 -18 9 -9 19 4 14 18 -4 11 -6 11 -12 0z"/>
<path d="M1340 2800 c0 -21 15 -27 25 -10 5 8 11 7 21 -1 11 -9 14 -7 14 10 0
17 -6 21 -30 21 -23 0 -30 -4 -30 -20z"/>
<path d="M1430 2795 c0 -14 5 -25 10 -25 6 0 10 11 10 25 0 14 -4 25 -10 25
-5 0 -10 -11 -10 -25z"/>
<path d="M1302 2758 c2 -13 9 -23 17 -23 23 0 24 23 1 35 -19 10 -21 9 -18
-12z"/>
<path d="M1416 2713 c-8 -8 -8 -76 0 -124 6 -34 8 -35 30 -25 27 12 31 34 9
42 -10 4 -15 21 -15 54 0 46 -9 67 -24 53z"/>
</g>
</svg>
